<svg xmlns="http://www.w3.org/2000/svg" width="1200" height="660" viewBox="0 0 1200 660"><style>text{font-family:Arial,sans-serif;fill:#123f58}.title{font-size:24px;font-weight:bold}.note{font-size:13px}.card{font-size:17px;font-weight:bold}</style><rect width="1200" height="660" fill="#fbfaf6"/><text x="30" y="38" class="title">2026 visible hulls versus the original contact checks</text><text x="30" y="62" class="note">Blue dots: stored boat positions. Red: nominal OG Manhattan contact regions. One unit = one simulation coordinate unit.</text><rect x="20" y="85" width="280" height="525" rx="8" fill="#e6eff2" stroke="#c4d5dc"/><text x="35" y="112" class="card">Boat vs boat</text><svg x="35" y="135" width="250" height="405" viewBox="-12 -34 24 44"><polygon points="-3.384765625,-0.0078125 -2.876953125,-4.029296875 -1.66796875,-8.02734375 -0.015625,-12.046875 1.65234375,-8.03125 2.86328125,-4.009765625 3.384765625,0.0078125 3.046875,4.0234375 1.953125,8.025390625 0.013671875,8.0390625 -1.939453125,8.03125 -3.033203125,4.013671875" fill="#b7d7e2" stroke="#315c73" stroke-width=".12"/><polygon points="3.384765625,-19.9921875 2.876953125,-15.970703125 1.66796875,-11.97265625 0.015625,-7.953125 -1.65234375,-11.96875 -2.86328125,-15.990234375 -3.384765625,-20.0078125 -3.046875,-24.0234375 -1.953125,-28.025390625 -0.013671875,-28.0390625 1.939453125,-28.03125 3.033203125,-24.013671875" fill="#ded2b5" stroke="#315c73" stroke-width=".12"/><polygon points="0,-5 5,0 0,5 -5,0" fill="#c9363630" stroke="#c93636" stroke-width=".16" stroke-dasharray=".45 .25"/><circle cx="0" cy="0" r=".3" fill="#123f58"/><circle cx="0" cy="-20" r=".3" fill="#123f58"/></svg><foreignObject x="35" y="545" width="250" height="50"><div xmlns="http://www.w3.org/1999/xhtml" style="font:14px Arial;color:#123f58;line-height:1.4">Visible bows overlap at 20 units; OG contact threshold is 5.</div></foreignObject><rect x="315" y="85" width="280" height="525" rx="8" fill="#e6eff2" stroke="#c4d5dc"/><text x="330" y="112" class="card">Boat vs buoy</text><svg x="330" y="135" width="250" height="405" viewBox="-12 -34 24 44"><polygon points="-3.384765625,-0.0078125 -2.876953125,-4.029296875 -1.66796875,-8.02734375 -0.015625,-12.046875 1.65234375,-8.03125 2.86328125,-4.009765625 3.384765625,0.0078125 3.046875,4.0234375 1.953125,8.025390625 0.013671875,8.0390625 -1.939453125,8.03125 -3.033203125,4.013671875" fill="#b7d7e2" stroke="#315c73" stroke-width=".12"/><circle cx="0" cy="-10" r="2.3" fill="#e9a544" stroke="#95651d" stroke-width=".12"/><polygon points="0,-11 1,-10 0,-9 -1,-10" fill="#c9363630" stroke="#c93636" stroke-width=".16" stroke-dasharray=".45 .25"/><circle cx="0" cy="0" r=".3" fill="#123f58"/></svg><foreignObject x="330" y="545" width="250" height="50"><div xmlns="http://www.w3.org/1999/xhtml" style="font:14px Arial;color:#123f58;line-height:1.4">Bow overlaps a buoy 10 units away; OG checks the boat point.</div></foreignObject><rect x="610" y="85" width="280" height="525" rx="8" fill="#e6eff2" stroke="#c4d5dc"/><text x="625" y="112" class="card">Committee boat</text><svg x="625" y="135" width="250" height="405" viewBox="-12 -34 24 44"><polygon points="-3,7 3,7 3,-4 0,-8 -3,-4" fill="#ded2b5" stroke="#315c73" stroke-width=".12"/><polygon points="3.384765625,-17.9921875 2.876953125,-13.970703125 1.66796875,-9.97265625 0.015625,-5.953125 -1.65234375,-9.96875 -2.86328125,-13.990234375 -3.384765625,-18.0078125 -3.046875,-22.0234375 -1.953125,-26.025390625 -0.013671875,-26.0390625 1.939453125,-26.03125 3.033203125,-22.013671875" fill="#b7d7e2" stroke="#315c73" stroke-width=".12"/><polygon points="0,-1 1,0 0,1 -1,0" fill="#c9363630" stroke="#c93636" stroke-width=".16" stroke-dasharray=".45 .25"/><circle cx="0" cy="0" r=".3" fill="#123f58"/><circle cx="0" cy="-18" r=".3" fill="#123f58"/></svg><foreignObject x="625" y="545" width="250" height="50"><div xmlns="http://www.w3.org/1999/xhtml" style="font:14px Arial;color:#123f58;line-height:1.4">Hulls overlap at 18 units; the committee test is only 1 unit.</div></foreignObject><rect x="905" y="85" width="280" height="525" rx="8" fill="#e6eff2" stroke="#c4d5dc"/><text x="920" y="112" class="card">Gate buoy</text><svg x="920" y="135" width="250" height="405" viewBox="-12 -34 24 44"><polygon points="-3.384765625,-0.0078125 -2.876953125,-4.029296875 -1.66796875,-8.02734375 -0.015625,-12.046875 1.65234375,-8.03125 2.86328125,-4.009765625 3.384765625,0.0078125 3.046875,4.0234375 1.953125,8.025390625 0.013671875,8.0390625 -1.939453125,8.03125 -3.033203125,4.013671875" fill="#b7d7e2" stroke="#315c73" stroke-width=".12"/><circle cx="0" cy="-10" r="2.3" fill="#e9a544" stroke="#95651d" stroke-width=".12"/><circle cx="0" cy="0" r=".3" fill="#123f58"/></svg><foreignObject x="920" y="545" width="250" height="50"><div xmlns="http://www.w3.org/1999/xhtml" style="font:14px Arial;color:#123f58;line-height:1.4">Gate centres have no direct mark-touch test.</div></foreignObject><text x="30" y="638" class="note">Flat hull envelopes from cached native geometry × current renderer scale. Quantization, heel, rule eligibility and cooldown add further differences.</text></svg>